<!--?xml version="1.0" standalone="no"?-->

<svg version="1.0" xmlns="http://www.w3.org/2000/svg" width="300.000000pt" height="267.000000pt" viewBox="0 0 300.000000 267.000000" preserveAspectRatio="xMidYMid meet">
<g transform="translate(0.000000,267.000000) scale(0.100000,-0.100000)" fill="#080808" stroke="none">

</g>
<g transform="translate(0.000000,267.000000) scale(0.100000,-0.100000)" fill="#A0A0A0" stroke="none">
<path class="node" id="node2" d="M89 2636 c-55 -38 -83 -112 -76 -201 8 -98 72 -258 154 -388 34 -54
47 -201 38 -407 -13 -275 -12 -299 15 -355 13 -27 47 -74 74 -104 31 -32 46
-56 39 -58 -27 -10 -125 -98 -173 -156 -133 -162 -161 -327 -83 -485 36 -71
162 -199 268 -271 44 -30 143 -86 220 -125 137 -69 142 -71 215 -71 58 1 88 6
130 25 97 43 208 146 289 269 83 126 209 416 198 457 -3 15 -7 11 -17 -16 -25
-67 -130 -261 -172 -318 -72 -99 -131 -164 -183 -202 -144 -105 -267 -108
-465 -9 -203 100 -353 286 -367 457 -7 87 10 119 95 183 31 24 84 66 117 94
83 71 133 107 184 137 l44 26 -32 17 c-56 29 -112 88 -137 144 -37 82 -44 164
-37 391 7 241 1 283 -63 413 -50 104 -57 158 -24 200 45 57 141 43 267 -40
250 -166 472 -431 709 -845 86 -151 94 -162 94 -127 0 29 -19 92 -53 174 -136
332 -257 540 -438 755 -182 217 -392 361 -618 425 -141 39 -169 41 -212 11z"></path>
<path class="node" id="node3" d="M2815 2653 c-11 -2 -56 -13 -100 -25 -461 -119 -858 -582 -1116
-1303 -46 -127 -19 -111 67 42 198 353 395 609 595 774 207 172 319 214 389
149 30 -28 32 -34 28 -83 -3 -34 -20 -82 -46 -136 -58 -116 -66 -176 -58 -407
7 -217 -2 -304 -39 -386 -27 -58 -80 -115 -136 -143 l-32 -17 44 -26 c52 -30
98 -65 196 -147 39 -33 95 -77 123 -98 69 -53 84 -85 77 -166 -18 -202 -189
-392 -451 -498 -261 -106 -474 38 -688 467 -43 85 -78 147 -78 137 0 -28 76
-227 126 -326 169 -340 411 -513 604 -430 298 128 524 299 602 456 76 153 55
300 -67 461 -44 58 -157 164 -187 175 -9 3 3 21 34 53 25 27 59 74 75 104 31
62 32 72 18 360 -4 90 -3 199 3 260 9 90 15 113 42 159 49 83 88 165 118 244
36 98 38 223 3 279 -37 60 -86 84 -146 71z"></path>
<path class="node" id="node4" d="M390 2293 c-65 -25 -66 -82 -5 -208 61 -124 68 -176 61 -421 -4 -123
-3 -226 3 -265 20 -120 79 -205 175 -252 31 -15 56 -31 56 -36 0 -5 -13 -11
-28 -14 -37 -8 -141 -77 -227 -152 -38 -34 -93 -78 -122 -99 -97 -69 -113
-129 -69 -256 51 -145 170 -266 346 -355 208 -104 343 -85 496 71 91 91 156
192 248 379 l74 150 3 185 4 185 -91 155 c-261 447 -432 655 -700 853 -78 57
-185 95 -224 80z"></path>
<path class="node" id="node5" d="M2508 2281 c-99 -40 -276 -178 -394 -308 -109 -120 -207 -254 -339
-463 -33 -52 -117 -196 -158 -270 l-35 -65 7 -165 6 -165 77 -155 c96 -193
161 -292 252 -384 90 -92 162 -128 263 -134 55 -3 84 1 127 17 231 86 392 229
452 401 44 127 29 182 -68 255 -29 21 -82 65 -118 96 -87 75 -196 149 -231
156 -16 3 -29 9 -29 14 0 5 26 22 58 38 100 51 153 128 173 251 6 40 8 141 4
265 -8 244 -1 295 60 421 50 104 58 159 26 188 -28 26 -80 28 -133 7z"></path>
<path class="node" id="node6" d="M1295 2024 c3 -17 42 -139 85 -270 78 -236 79 -238 80 -178 0 75 -24
220 -46 271 -33 79 -70 146 -97 176 l-28 32 6 -31z"></path>
<path class="node" id="node7" d="M1684 2042 c-20 -13 -72 -98 -97 -157 -29 -71 -67 -240 -67 -303 0
-34 -3 -43 -14 -39 -25 10 -36 -17 -56 -149 -26 -168 -36 -511 -21 -699 23
-285 53 -413 81 -340 26 68 41 203 56 490 7 140 -8 414 -32 580 -9 66 -11 101
-4 103 5 2 10 9 10 17 0 7 36 122 80 255 44 134 79 244 77 246 -1 2 -7 0 -13
-4z"></path>
</g>
</svg>