<?xml version="1.0" encoding="UTF-8" standalone="no"?>
<!-- Created with Inkscape (http://www.inkscape.org/) -->

<svg
   xmlns:dc="http://purl.org/dc/elements/1.1/"
   xmlns:cc="http://creativecommons.org/ns#"
   xmlns:rdf="http://www.w3.org/1999/02/22-rdf-syntax-ns#"
   xmlns:svg="http://www.w3.org/2000/svg"
   xmlns="http://www.w3.org/2000/svg"
   xmlns:sodipodi="http://sodipodi.sourceforge.net/DTD/sodipodi-0.dtd"
   xmlns:inkscape="http://www.inkscape.org/namespaces/inkscape"
   id="svg2"
   version="1.1"
   inkscape:version="0.91 r13725"
   xml:space="preserve"
   width="1000"
   height="1000"
   viewBox="0 0 1000 1000"
   sodipodi:docname="more07.ai.svg"><metadata
     id="metadata8"><rdf:RDF><cc:Work
         rdf:about=""><dc:format>image/svg+xml</dc:format><dc:type
           rdf:resource="http://purl.org/dc/dcmitype/StillImage" /><dc:title></dc:title></cc:Work></rdf:RDF></metadata><defs
     id="defs6"><clipPath
       clipPathUnits="userSpaceOnUse"
       id="clipPath16"><path
         d="M 0,800 800,800 800,0 0,0 0,800 Z"
         id="path18"
         inkscape:connector-curvature="0" /></clipPath><clipPath
       clipPathUnits="userSpaceOnUse"
       id="clipPath24"><path
         d="M 0,800 800,800 800,0 0,0 0,800 Z"
         id="path26"
         inkscape:connector-curvature="0" /></clipPath><clipPath
       clipPathUnits="userSpaceOnUse"
       id="clipPath28"><path
         d="M 0,0 400.591,0 800,0 800,345.412 800,800 400.591,800 0,800 0,345.412 0,0 Z"
         id="path30"
         inkscape:connector-curvature="0" /></clipPath><clipPath
       clipPathUnits="userSpaceOnUse"
       id="clipPath162"><path
         d="m 280.789,44.8019 238.422,0 0,-23.0733 -238.422,0 0,23.0733 z"
         id="path164"
         inkscape:connector-curvature="0" /></clipPath><clipPath
       clipPathUnits="userSpaceOnUse"
       id="clipPath298"><path
         d="M 0,800 800,800 800,0 0,0 0,800 Z"
         id="path300"
         inkscape:connector-curvature="0" /></clipPath><clipPath
       clipPathUnits="userSpaceOnUse"
       id="clipPath306"><path
         d="m 220.193,85.6295 344.347,0 0,-18.6796 -344.347,0 0,18.6796 z"
         id="path308"
         inkscape:connector-curvature="0" /></clipPath><clipPath
       clipPathUnits="userSpaceOnUse"
       id="clipPath534"><path
         d="m 364.932,677.035 12.715,0 0,-10.651 -12.715,0 0,10.651 z"
         id="path536"
         inkscape:connector-curvature="0" /></clipPath><clipPath
       clipPathUnits="userSpaceOnUse"
       id="clipPath550"><path
         d="m 367.127,672.667 9.064,0 0,-4.13 -9.064,0 0,4.13 z"
         id="path552"
         inkscape:connector-curvature="0" /></clipPath><clipPath
       clipPathUnits="userSpaceOnUse"
       id="clipPath586"><path
         d="m 388.085,632.485 10.436,0 0,-19.735 -10.436,0 0,19.735 z"
         id="path588"
         inkscape:connector-curvature="0" /></clipPath><clipPath
       clipPathUnits="userSpaceOnUse"
       id="clipPath638"><path
         d="m 376.509,591.23 9.737,0 0,-53.893 -9.737,0 0,53.893 z"
         id="path640"
         inkscape:connector-curvature="0" /></clipPath></defs><sodipodi:namedview
     pagecolor="#ffffff"
     bordercolor="#666666"
     borderopacity="1"
     objecttolerance="10"
     gridtolerance="10"
     guidetolerance="10"
     inkscape:pageopacity="0"
     inkscape:pageshadow="2"
     inkscape:window-width="1366"
     inkscape:window-height="670"
     id="namedview4"
     showgrid="false"
     inkscape:zoom="0.35355339"
     inkscape:cx="557.93947"
     inkscape:cy="432.8321"
     inkscape:window-x="0"
     inkscape:window-y="1"
     inkscape:window-maximized="1"
     inkscape:current-layer="g10" /><g
     id="g10"
     inkscape:groupmode="layer"
     inkscape:label="more07"
     transform="matrix(1.25,0,0,-1.25,0,1000)"><g
       id="g20"
       transform="translate(0.9372581,0.2745166)"><g
         id="g22" /><g
         id="g32"><g
           clip-path="url(#clipPath24)"
           id="g34"
           style="opacity:0.67999297"><g
             id="g36"><g
               clip-path="url(#clipPath28)"
               id="g38"><g
                 id="g40"><g
                   transform="scale(1,-1)"
                   id="g42"><g
                     id="g44"><path
                       d="m 0,0 c 0,-57.568359 0,-115.1377 0,-172.70605 33.382324,0 66.765137,0 100.14746,0 0,57.56835 0,115.137691 0,172.70605 C 66.765137,0 33.382324,0 0,0 Z"
                       style="fill:#105085;fill-opacity:1;fill-rule:nonzero;stroke:none"
                       id="path46"
                       inkscape:connector-curvature="0" /><path
                       d="m 100.14746,0 c 0,-57.568359 0,-115.1377 0,-172.70605 33.38281,0 66.76514,0 100.14746,0 0,57.56835 0,115.137691 0,172.70605 -33.38232,0 -66.76465,0 -100.14746,0 z"
                       style="fill:#105085;fill-opacity:1;fill-rule:nonzero;stroke:none"
                       id="path48"
                       inkscape:connector-curvature="0" /><path
                       d="m 0,-172.70605 c 33.382324,0 66.765137,0 100.14746,0 0,-28.78418 0,-57.56836 0,-86.35352 -33.382323,0 -66.765136,0 -100.14746,0 0,28.78516 0,57.56934 0,86.35352 z"
                       style="fill:#105085;fill-opacity:1;fill-rule:nonzero;stroke:none"
                       id="path50"
                       inkscape:connector-curvature="0" /><path
                       d="m 0,-259.05957 c 33.382324,0 66.765137,0 100.14746,0 0,-28.78418 0,-57.56836 0,-86.35254 -33.382323,0 -66.765136,0 -100.14746,0 0,28.78418 0,57.56836 0,86.35254 z"
                       style="fill:#105085;fill-opacity:1;fill-rule:nonzero;stroke:none"
                       id="path52"
                       inkscape:connector-curvature="0" /><path
                       d="m 100.14746,-172.70605 c 33.38281,0 66.76514,0 100.14746,0 0,-28.78418 0,-57.56836 0,-86.35352 -33.38232,0 -66.76465,0 -100.14746,0 0,28.78516 0,57.56934 0,86.35352 z"
                       style="fill:#2a669a;fill-opacity:1;fill-rule:nonzero;stroke:none"
                       id="path54"
                       inkscape:connector-curvature="0" /><path
                       d="m 100.14746,-259.05957 c 33.38281,0 66.76514,0 100.14746,0 0,-28.78418 0,-57.56836 0,-86.35254 -33.38232,0 -66.76465,0 -100.14746,0 0,28.78418 0,57.56836 0,86.35254 z"
                       style="fill:#3571a4;fill-opacity:1;fill-rule:nonzero;stroke:none"
                       id="path56"
                       inkscape:connector-curvature="0" /><path
                       d="m 200.29492,0 c 33.38281,0 66.76514,0 100.14795,0 0,-28.78418 0,-57.568359 0,-86.353516 -33.38281,0 -66.76514,0 -100.14795,0 0,28.785157 0,57.569336 0,86.353516 z"
                       style="fill:#105085;fill-opacity:1;fill-rule:nonzero;stroke:none"
                       id="path58"
                       inkscape:connector-curvature="0" /><path
                       d="m 200.29492,-86.353516 c 33.38281,0 66.76514,0 100.14795,0 0,-28.784184 0,-57.568364 0,-86.352534 -33.38281,0 -66.76514,0 -100.14795,0 0,28.78417 0,57.56835 0,86.352534 z"
                       style="fill:#2a669a;fill-opacity:1;fill-rule:nonzero;stroke:none"
                       id="path60"
                       inkscape:connector-curvature="0" /><path
                       d="m 300.44287,0 c 33.38233,0 66.76514,0 100.14795,0 0,-28.78418 0,-57.568359 0,-86.353516 -33.38281,0 -66.76562,0 -100.14795,0 0,28.785157 0,57.569336 0,86.353516 z"
                       style="fill:#105085;fill-opacity:1;fill-rule:nonzero;stroke:none"
                       id="path62"
                       inkscape:connector-curvature="0" /><path
                       d="m 300.44287,-86.353516 c 33.38233,0 66.76514,0 100.14795,0 0,-28.784184 0,-57.568364 0,-86.352534 -33.38281,0 -66.76562,0 -100.14795,0 0,28.78417 0,57.56835 0,86.352534 z"
                       style="fill:#3571a4;fill-opacity:1;fill-rule:nonzero;stroke:none"
                       id="path64"
                       inkscape:connector-curvature="0" /><path
                       d="m 200.29492,-172.70605 c 33.38281,0 66.76514,0 100.14795,0 0,-28.78418 0,-57.56836 0,-86.35352 -33.38281,0 -66.76514,0 -100.14795,0 0,28.78516 0,57.56934 0,86.35352 z"
                       style="fill:#3e7aae;fill-opacity:1;fill-rule:nonzero;stroke:none"
                       id="path66"
                       inkscape:connector-curvature="0" /><path
                       d="m 200.29492,-259.05957 c 33.38281,0 66.76514,0 100.14795,0 0,-28.78418 0,-57.56836 0,-86.35254 -33.38281,0 -66.76514,0 -100.14795,0 0,28.78418 0,57.56836 0,86.35254 z"
                       style="fill:#4b89bd;fill-opacity:1;fill-rule:nonzero;stroke:none"
                       id="path68"
                       inkscape:connector-curvature="0" /><path
                       d="m 300.44287,-172.70605 c 33.38233,0 66.76514,0 100.14795,0 0,-28.78418 0,-57.56836 0,-86.35352 -33.38281,0 -66.76562,0 -100.14795,0 0,28.78516 0,57.56934 0,86.35352 z"
                       style="fill:#4b89bd;fill-opacity:1;fill-rule:nonzero;stroke:none"
                       id="path70"
                       inkscape:connector-curvature="0" /><path
                       d="m 300.44287,-259.05957 c 33.38233,0 66.76514,0 100.14795,0 0,-28.78418 0,-57.56836 0,-86.35254 -33.38281,0 -66.76562,0 -100.14795,0 0,28.78418 0,57.56836 0,86.35254 z"
                       style="fill:#5a98cc;fill-opacity:1;fill-rule:nonzero;stroke:none"
                       id="path72"
                       inkscape:connector-curvature="0" /><path
                       d="m 400.59082,0 c 33.28418,0 66.56738,0 99.85156,0 0,-28.78418 0,-57.568359 0,-86.353516 -33.28418,0 -66.56738,0 -99.85156,0 0,28.785157 0,57.569336 0,86.353516 z"
                       style="fill:#105085;fill-opacity:1;fill-rule:nonzero;stroke:none"
                       id="path74"
                       inkscape:connector-curvature="0" /><path
                       d="m 400.59082,-86.353516 c 33.28418,0 66.56738,0 99.85156,0 0,-28.784184 0,-57.568364 0,-86.352534 -33.28418,0 -66.56738,0 -99.85156,0 0,28.78417 0,57.56835 0,86.352534 z"
                       style="fill:#3a75a9;fill-opacity:1;fill-rule:nonzero;stroke:none"
                       id="path76"
                       inkscape:connector-curvature="0" /><path
                       d="m 500.44238,0 c 33.28418,0 66.56836,0 99.85254,0 0,-28.78418 0,-57.568359 0,-86.353516 -33.28418,0 -66.56836,0 -99.85254,0 0,28.785157 0,57.569336 0,86.353516 z"
                       style="fill:#105085;fill-opacity:1;fill-rule:nonzero;stroke:none"
                       id="path78"
                       inkscape:connector-curvature="0" /><path
                       d="m 500.44238,-86.353516 c 33.28418,0 66.56836,0 99.85254,0 0,-28.784184 0,-57.568364 0,-86.352534 -33.28418,0 -66.56836,0 -99.85254,0 0,28.78417 0,57.56835 0,86.352534 z"
                       style="fill:#3571a4;fill-opacity:1;fill-rule:nonzero;stroke:none"
                       id="path80"
                       inkscape:connector-curvature="0" /><path
                       d="m 400.59082,-172.70605 c 33.28418,0 66.56738,0 99.85156,0 0,-28.78418 0,-57.56836 0,-86.35352 -33.28418,0 -66.56738,0 -99.85156,0 0,28.78516 0,57.56934 0,86.35352 z"
                       style="fill:#508fc3;fill-opacity:1;fill-rule:nonzero;stroke:none"
                       id="path82"
                       inkscape:connector-curvature="0" /><path
                       d="m 400.59082,-259.05957 c 33.28418,0 66.56738,0 99.85156,0 0,-28.78418 0,-57.56836 0,-86.35254 -33.28418,0 -66.56738,0 -99.85156,0 0,28.78418 0,57.56836 0,86.35254 z"
                       style="fill:#5d9ed2;fill-opacity:1;fill-rule:nonzero;stroke:none"
                       id="path84"
                       inkscape:connector-curvature="0" /><path
                       d="m 500.44238,-172.70605 c 33.28418,0 66.56836,0 99.85254,0 0,-28.78418 0,-57.56836 0,-86.35352 -33.28418,0 -66.56836,0 -99.85254,0 0,28.78516 0,57.56934 0,86.35352 z"
                       style="fill:#4b89bd;fill-opacity:1;fill-rule:nonzero;stroke:none"
                       id="path86"
                       inkscape:connector-curvature="0" /><path
                       d="m 500.44238,-259.05957 c 33.28418,0 66.56836,0 99.85254,0 0,-28.78418 0,-57.56836 0,-86.35254 -33.28418,0 -66.56836,0 -99.85254,0 0,28.78418 0,57.56836 0,86.35254 z"
                       style="fill:#5a98cc;fill-opacity:1;fill-rule:nonzero;stroke:none"
                       id="path88"
                       inkscape:connector-curvature="0" /><path
                       d="m 600.29492,0 c 0,-57.568359 0,-115.1377 0,-172.70605 33.28418,0 66.56836,0 99.85254,0 0,57.56835 0,115.137691 0,172.70605 -33.28418,0 -66.56836,0 -99.85254,0 z"
                       style="fill:#105085;fill-opacity:1;fill-rule:nonzero;stroke:none"
                       id="path90"
                       inkscape:connector-curvature="0" /><path
                       d="m 700.14746,0 c 0,-57.568359 0,-115.1377 0,-172.70605 33.28418,0 66.56836,0 99.85254,0 0,57.56835 0,115.137691 0,172.70605 -33.28418,0 -66.56836,0 -99.85254,0 z"
                       style="fill:#105085;fill-opacity:1;fill-rule:nonzero;stroke:none"
                       id="path92"
                       inkscape:connector-curvature="0" /><path
                       d="m 600.29492,-172.70605 c 33.28418,0 66.56836,0 99.85254,0 0,-28.78418 0,-57.56836 0,-86.35352 -33.28418,0 -66.56836,0 -99.85254,0 0,28.78516 0,57.56934 0,86.35352 z"
                       style="fill:#3e7aae;fill-opacity:1;fill-rule:nonzero;stroke:none"
                       id="path94"
                       inkscape:connector-curvature="0" /><path
                       d="m 600.29492,-259.05957 c 33.28418,0 66.56836,0 99.85254,0 0,-28.78418 0,-57.56836 0,-86.35254 -33.28418,0 -66.56836,0 -99.85254,0 0,28.78418 0,57.56836 0,86.35254 z"
                       style="fill:#4b89bd;fill-opacity:1;fill-rule:nonzero;stroke:none"
                       id="path96"
                       inkscape:connector-curvature="0" /><path
                       d="m 700.14746,-172.70605 c 33.28418,0 66.56836,0 99.85254,0 0,-28.78418 0,-57.56836 0,-86.35352 -33.28418,0 -66.56836,0 -99.85254,0 0,28.78516 0,57.56934 0,86.35352 z"
                       style="fill:#2a669a;fill-opacity:1;fill-rule:nonzero;stroke:none"
                       id="path98"
                       inkscape:connector-curvature="0" /><path
                       d="m 700.14746,-259.05957 c 33.28418,0 66.56836,0 99.85254,0 0,-28.78418 0,-57.56836 0,-86.35254 -33.28418,0 -66.56836,0 -99.85254,0 0,28.78418 0,57.56836 0,86.35254 z"
                       style="fill:#3571a4;fill-opacity:1;fill-rule:nonzero;stroke:none"
                       id="path100"
                       inkscape:connector-curvature="0" /><path
                       d="m 0,-345.41211 c 33.382324,0 66.765137,0 100.14746,0 0,-37.88281 0,-75.76465 0,-113.64697 -33.382323,0 -66.765136,0 -100.14746,0 0,37.88232 0,75.76416 0,113.64697 z"
                       style="fill:#105085;fill-opacity:1;fill-rule:nonzero;stroke:none"
                       id="path102"
                       inkscape:connector-curvature="0" /><path
                       d="m 0,-459.05908 c 33.382324,0 66.765137,0 100.14746,0 0,-37.88233 0,-75.76465 0,-113.64697 -33.382323,0 -66.765136,0 -100.14746,0 0,37.88232 0,75.76464 0,113.64697 z"
                       style="fill:#105085;fill-opacity:1;fill-rule:nonzero;stroke:none"
                       id="path104"
                       inkscape:connector-curvature="0" /><path
                       d="m 100.14746,-345.41211 c 33.38281,0 66.76514,0 100.14746,0 0,-37.88281 0,-75.76465 0,-113.64697 -33.38232,0 -66.76465,0 -100.14746,0 0,37.88232 0,75.76416 0,113.64697 z"
                       style="fill:#3a75a9;fill-opacity:1;fill-rule:nonzero;stroke:none"
                       id="path106"
                       inkscape:connector-curvature="0" /><path
                       d="m 100.14746,-459.05908 c 33.38281,0 66.76514,0 100.14746,0 0,-37.88233 0,-75.76465 0,-113.64697 -33.38232,0 -66.76465,0 -100.14746,0 0,37.88232 0,75.76464 0,113.64697 z"
                       style="fill:#3571a4;fill-opacity:1;fill-rule:nonzero;stroke:none"
                       id="path108"
                       inkscape:connector-curvature="0" /><path
                       d="M 0,-572.70605 C 0,-648.4707 0,-724.23535 0,-800 c 33.382324,0 66.765137,0 100.14746,0 0,75.76465 0,151.5293 0,227.29395 -33.382323,0 -66.765136,0 -100.14746,0 z"
                       style="fill:#105085;fill-opacity:1;fill-rule:nonzero;stroke:none"
                       id="path110"
                       inkscape:connector-curvature="0" /><path
                       d="m 100.14746,-572.70605 c 0,-75.76465 0,-151.5293 0,-227.29395 33.38281,0 66.76514,0 100.14746,0 0,75.76465 0,151.5293 0,227.29395 -33.38232,0 -66.76465,0 -100.14746,0 z"
                       style="fill:#2a669a;fill-opacity:1;fill-rule:nonzero;stroke:none"
                       id="path112"
                       inkscape:connector-curvature="0" /><path
                       d="m 200.29492,-345.41211 c 33.38281,0 66.76514,0 100.14795,0 0,-37.88281 0,-75.76465 0,-113.64697 -33.38281,0 -66.76514,0 -100.14795,0 0,37.88232 0,75.76416 0,113.64697 z"
                       style="fill:#508fc3;fill-opacity:1;fill-rule:nonzero;stroke:none"
                       id="path114"
                       inkscape:connector-curvature="0" /><path
                       d="m 200.29492,-459.05908 c 33.38281,0 66.76514,0 100.14795,0 0,-37.88233 0,-75.76465 0,-113.64697 -33.38281,0 -66.76514,0 -100.14795,0 0,37.88232 0,75.76464 0,113.64697 z"
                       style="fill:#4b89bd;fill-opacity:1;fill-rule:nonzero;stroke:none"
                       id="path116"
                       inkscape:connector-curvature="0" /><path
                       d="m 300.44287,-345.41211 c 33.38233,0 66.76514,0 100.14795,0 0,-37.88281 0,-75.76465 0,-113.64697 -33.38281,0 -66.76562,0 -100.14795,0 0,37.88232 0,75.76416 0,113.64697 z"
                       style="fill:#5d9ed2;fill-opacity:1;fill-rule:nonzero;stroke:none"
                       id="path118"
                       inkscape:connector-curvature="0" /><path
                       d="m 300.44287,-459.05908 c 33.38233,0 66.76514,0 100.14795,0 0,-37.88233 0,-75.76465 0,-113.64697 -33.38281,0 -66.76562,0 -100.14795,0 0,37.88232 0,75.76464 0,113.64697 z"
                       style="fill:#5a98cc;fill-opacity:1;fill-rule:nonzero;stroke:none"
                       id="path120"
                       inkscape:connector-curvature="0" /><path
                       d="m 200.29492,-572.70605 c 33.38281,0 66.76514,0 100.14795,0 0,-37.88233 0,-75.76465 0,-113.64698 -33.38281,0 -66.76514,0 -100.14795,0 0,37.88233 0,75.76465 0,113.64698 z"
                       style="fill:#3e7aae;fill-opacity:1;fill-rule:nonzero;stroke:none"
                       id="path122"
                       inkscape:connector-curvature="0" /><path
                       d="m 200.29492,-686.35303 c 33.38281,0 66.76514,0 100.14795,0 0,-37.88232 0,-75.76465 0,-113.64697 -33.38281,0 -66.76514,0 -100.14795,0 0,37.88232 0,75.76465 0,113.64697 z"
                       style="fill:#2a669a;fill-opacity:1;fill-rule:nonzero;stroke:none"
                       id="path124"
                       inkscape:connector-curvature="0" /><path
                       d="m 300.44287,-572.70605 c 33.38233,0 66.76514,0 100.14795,0 0,-37.88233 0,-75.76465 0,-113.64698 -33.38281,0 -66.76562,0 -100.14795,0 0,37.88233 0,75.76465 0,113.64698 z"
                       style="fill:#4b89bd;fill-opacity:1;fill-rule:nonzero;stroke:none"
                       id="path126"
                       inkscape:connector-curvature="0" /><path
                       d="m 300.44287,-686.35303 c 33.38233,0 66.76514,0 100.14795,0 0,-37.88232 0,-75.76465 0,-113.64697 -33.38281,0 -66.76562,0 -100.14795,0 0,37.88232 0,75.76465 0,113.64697 z"
                       style="fill:#3571a4;fill-opacity:1;fill-rule:nonzero;stroke:none"
                       id="path128"
                       inkscape:connector-curvature="0" /><path
                       d="m 400.59082,-345.41211 c 33.28418,0 66.56738,0 99.85156,0 0,-37.88281 0,-75.76465 0,-113.64697 -33.28418,0 -66.56738,0 -99.85156,0 0,37.88232 0,75.76416 0,113.64697 z"
                       style="fill:#63a3d7;fill-opacity:1;fill-rule:nonzero;stroke:none"
                       id="path130"
                       inkscape:connector-curvature="0" /><path
                       d="m 400.59082,-459.05908 c 33.28418,0 66.56738,0 99.85156,0 0,-37.88233 0,-75.76465 0,-113.64697 -33.28418,0 -66.56738,0 -99.85156,0 0,37.88232 0,75.76464 0,113.64697 z"
                       style="fill:#5d9ed2;fill-opacity:1;fill-rule:nonzero;stroke:none"
                       id="path132"
                       inkscape:connector-curvature="0" /><path
                       d="m 500.44238,-345.41211 c 33.28418,0 66.56836,0 99.85254,0 0,-37.88281 0,-75.76465 0,-113.64697 -33.28418,0 -66.56836,0 -99.85254,0 0,37.88232 0,75.76416 0,113.64697 z"
                       style="fill:#5d9ed2;fill-opacity:1;fill-rule:nonzero;stroke:none"
                       id="path134"
                       inkscape:connector-curvature="0" /><path
                       d="m 500.44238,-459.05908 c 33.28418,0 66.56836,0 99.85254,0 0,-37.88233 0,-75.76465 0,-113.64697 -33.28418,0 -66.56836,0 -99.85254,0 0,37.88232 0,75.76464 0,113.64697 z"
                       style="fill:#5a98cc;fill-opacity:1;fill-rule:nonzero;stroke:none"
                       id="path136"
                       inkscape:connector-curvature="0" /><path
                       d="m 400.59082,-572.70605 c 33.28418,0 66.56738,0 99.85156,0 0,-37.88233 0,-75.76465 0,-113.64698 -33.28418,0 -66.56738,0 -99.85156,0 0,37.88233 0,75.76465 0,113.64698 z"
                       style="fill:#508fc3;fill-opacity:1;fill-rule:nonzero;stroke:none"
                       id="path138"
                       inkscape:connector-curvature="0" /><path
                       d="m 400.59082,-686.35303 c 33.28418,0 66.56738,0 99.85156,0 0,-37.88232 0,-75.76465 0,-113.64697 -33.28418,0 -66.56738,0 -99.85156,0 0,37.88232 0,75.76465 0,113.64697 z"
                       style="fill:#3a75a9;fill-opacity:1;fill-rule:nonzero;stroke:none"
                       id="path140"
                       inkscape:connector-curvature="0" /><path
                       d="m 500.44238,-572.70605 c 33.28418,0 66.56836,0 99.85254,0 0,-37.88233 0,-75.76465 0,-113.64698 -33.28418,0 -66.56836,0 -99.85254,0 0,37.88233 0,75.76465 0,113.64698 z"
                       style="fill:#4b89bd;fill-opacity:1;fill-rule:nonzero;stroke:none"
                       id="path142"
                       inkscape:connector-curvature="0" /><path
                       d="m 500.44238,-686.35303 c 33.28418,0 66.56836,0 99.85254,0 0,-37.88232 0,-75.76465 0,-113.64697 -33.28418,0 -66.56836,0 -99.85254,0 0,37.88232 0,75.76465 0,113.64697 z"
                       style="fill:#3571a4;fill-opacity:1;fill-rule:nonzero;stroke:none"
                       id="path144"
                       inkscape:connector-curvature="0" /><path
                       d="m 600.29492,-345.41211 c 33.28418,0 66.56836,0 99.85254,0 0,-37.88281 0,-75.76465 0,-113.64697 -33.28418,0 -66.56836,0 -99.85254,0 0,37.88232 0,75.76416 0,113.64697 z"
                       style="fill:#508fc3;fill-opacity:1;fill-rule:nonzero;stroke:none"
                       id="path146"
                       inkscape:connector-curvature="0" /><path
                       d="m 600.29492,-459.05908 c 33.28418,0 66.56836,0 99.85254,0 0,-37.88233 0,-75.76465 0,-113.64697 -33.28418,0 -66.56836,0 -99.85254,0 0,37.88232 0,75.76464 0,113.64697 z"
                       style="fill:#4b89bd;fill-opacity:1;fill-rule:nonzero;stroke:none"
                       id="path148"
                       inkscape:connector-curvature="0" /><path
                       d="m 700.14746,-345.41211 c 33.28418,0 66.56836,0 99.85254,0 0,-37.88281 0,-75.76465 0,-113.64697 -33.28418,0 -66.56836,0 -99.85254,0 0,37.88232 0,75.76416 0,113.64697 z"
                       style="fill:#3a75a9;fill-opacity:1;fill-rule:nonzero;stroke:none"
                       id="path150"
                       inkscape:connector-curvature="0" /><path
                       d="m 700.14746,-459.05908 c 33.28418,0 66.56836,0 99.85254,0 0,-37.88233 0,-75.76465 0,-113.64697 -33.28418,0 -66.56836,0 -99.85254,0 0,37.88232 0,75.76464 0,113.64697 z"
                       style="fill:#3571a4;fill-opacity:1;fill-rule:nonzero;stroke:none"
                       id="path152"
                       inkscape:connector-curvature="0" /><path
                       d="m 600.29492,-572.70605 c 0,-75.76465 0,-151.5293 0,-227.29395 33.28418,0 66.56836,0 99.85254,0 0,75.76465 0,151.5293 0,227.29395 -33.28418,0 -66.56836,0 -99.85254,0 z"
                       style="fill:#3e7aae;fill-opacity:1;fill-rule:nonzero;stroke:none"
                       id="path154"
                       inkscape:connector-curvature="0" /><path
                       d="m 700.14746,-572.70605 c 0,-75.76465 0,-151.5293 0,-227.29395 33.28418,0 66.56836,0 99.85254,0 0,75.76465 0,151.5293 0,227.29395 -33.28418,0 -66.56836,0 -99.85254,0 z"
                       style="fill:#2a669a;fill-opacity:1;fill-rule:nonzero;stroke:none"
                       id="path156"
                       inkscape:connector-curvature="0" /></g></g></g></g></g></g></g></g><g
       id="g158"
       transform="translate(-0.66274192,0.2745166)"><g
         id="g160" /></g><g
       id="g294"><g
         id="g296"
         clip-path="url(#clipPath298)"><g
           id="g302"><g
             id="g304" /><g
             id="g310"><g
               clip-path="url(#clipPath306)"
               id="g312"
               style="opacity:0.35000604"><g
                 transform="translate(564.5401,76.2897)"
                 id="g314"><path
                   d="m 0,0 c 0,5.158 -77.085,9.34 -172.173,9.34 -95.089,0 -172.174,-4.182 -172.174,-9.34 0,-5.158 77.085,-9.34 172.174,-9.34 C -77.085,-9.34 0,-5.158 0,0"
                   style="fill:#481118;fill-opacity:1;fill-rule:nonzero;stroke:none"
                   id="path316"
                   inkscape:connector-curvature="0" /></g></g></g></g><g
           id="g318"
           transform="translate(513.9017,82)"><path
             d="m 0,0 -220.394,0 c -13.638,0 -26.508,10.245 -26.508,22.171 l 0,3.239 c 0,11.926 12.87,21.59 26.508,21.59 L 0,47 C 0,47 -6.174,39.163 -6.174,24.579 -6.174,7.858 0,0 0,0"
             style="fill:#fcfcf7;fill-opacity:1;fill-rule:nonzero;stroke:none"
             id="path320"
             inkscape:connector-curvature="0" /></g><g
           id="g322"
           transform="translate(516.4702,81)"><path
             d="m 0,0 -138.47,0 0,46 L 0,46 C 0,46 -6.173,38.663 -6.173,24.079 -6.173,7.358 0,0 0,0"
             style="fill:#f0f0e2;fill-opacity:1;fill-rule:nonzero;stroke:none"
             id="path324"
             inkscape:connector-curvature="0" /></g><g
           id="g326"
           transform="translate(297.6992,81.3382)"><path
             d="m 0,0 c -15.186,0 -26.699,9.792 -26.699,22.293 l 0,3.239 c 0,6.144 2.519,11.837 7.788,16.029 5.112,4.066 11.683,6.305 18.852,6.305 1.027,0 1.763,-0.727 1.763,-1.625 0,-0.897 -0.355,-1.625 -1.382,-1.625 -13.176,0 -23.021,-8.383 -23.021,-19.084 l 0,-3.239 C -22.699,11.615 -12.961,3.25 0.141,3.25 1.168,3.25 1.929,2.523 1.929,1.625 1.929,0.728 1.027,0 0,0"
             style="fill:#3c6082;fill-opacity:1;fill-rule:nonzero;stroke:none"
             id="path328"
             inkscape:connector-curvature="0" /></g><g
           id="g330"
           transform="translate(518,80)"><path
             d="M 0,0 -225.109,0 C -240.557,0 -254,10.62 -254,24.171 l 0,3.239 c 0,13.106 13.177,23.59 28.891,23.59 L 0,51 0,46 -225.109,46 C -237.31,46 -247,37.443 -247,27.41 l 0,-3.239 C -247,13.822 -236.896,5 -225.109,5 L 0,5 0,0 Z"
             style="fill:#613d3c;fill-opacity:1;fill-rule:nonzero;stroke:none"
             id="path332"
             inkscape:connector-curvature="0" /></g><g
           id="g334"
           transform="translate(464.1363,270)"><path
             d="m 0,0 -144.054,0 c -10.229,0 -19.082,8.429 -19.082,17.374 l 0,2.429 c 0,8.944 8.853,15.197 19.082,15.197 L 0,35 C 0,35 -4.63,29.248 -4.63,18.309 -4.63,5.769 0,0 0,0"
             style="fill:#fcfcf7;fill-opacity:1;fill-rule:nonzero;stroke:none"
             id="path336"
             inkscape:connector-curvature="0" /></g><g
           id="g338"
           transform="translate(466.0629,270)"><path
             d="m 0,0 -115.063,0 0,35 L 0,35 C 0,35 -4.63,29.248 -4.63,18.309 -4.63,5.769 0,0 0,0"
             style="fill:#f0f0e2;fill-opacity:1;fill-rule:nonzero;stroke:none"
             id="path340"
             inkscape:connector-curvature="0" /></g><g
           id="g342"
           transform="translate(323.125,270.2491)"><path
             d="m 0,0 c -11.39,0 -20.125,7.344 -20.125,16.719 l 0,2.43 c 0,4.608 1.99,8.878 5.942,12.022 3.834,3.049 8.813,4.729 14.189,4.729 0.77,0 1.347,-0.546 1.347,-1.219 0,-0.673 -0.854,-1.219 -1.624,-1.219 -9.882,0 -17.854,-6.287 -17.854,-14.313 l 0,-2.43 c 0,-8.008 7.904,-14.281 17.731,-14.281 0.77,0 1.591,-0.546 1.591,-1.219 C 1.197,0.546 0.77,0 0,0"
             style="fill:#3c6082;fill-opacity:1;fill-rule:nonzero;stroke:none"
             id="path344"
             inkscape:connector-curvature="0" /></g><g
           id="g346"
           transform="translate(467,269)"><path
             d="M 0,0 -147.381,0 C -158.967,0 -168,8.21 -168,18.374 l 0,2.429 c 0,9.829 8.834,18.197 20.619,18.197 L 0,39 0,35 -147.381,35 C -156.531,35 -164,28.328 -164,20.803 l 0,-2.429 C -164,10.612 -156.221,3 -147.381,3 L 0,3 0,0 Z"
             style="fill:#8da1b5;fill-opacity:1;fill-rule:nonzero;stroke:none"
             id="path348"
             inkscape:connector-curvature="0" /></g><g
           id="g350"
           transform="translate(521.2437,205)"><path
             d="m 0,0 -222.98,0 c -10.577,0 -18.264,8.425 -18.264,17.674 l 0,2.512 c 0,9.25 7.687,16.814 18.264,16.814 L 0,37 C 0,37 -4.788,30.649 -4.788,19.337 -4.788,6.368 0,0 0,0"
             style="fill:#fcfcf7;fill-opacity:1;fill-rule:nonzero;stroke:none"
             id="path352"
             inkscape:connector-curvature="0" /></g><g
           id="g354"
           transform="translate(521.2437,241.2278)"><path
             d="m 0,0 -162.859,0 0,-35.755 162.859,0 c 0,0 -4.788,5.746 -4.788,18.715 C -4.788,-5.729 0,0 0,0"
             style="fill:#f0f0e2;fill-opacity:1;fill-rule:nonzero;stroke:none"
             id="path356"
             inkscape:connector-curvature="0" /></g><g
           id="g358"
           transform="translate(300.977,203.6749)"><path
             d="m 0,0 c -11.348,0 -19.977,8.335 -19.977,18.581 l 0,2.512 c 0,9.972 8.895,18.085 20.571,18.085 1.026,0 1.556,-0.727 1.556,-1.625 0,-0.898 -1.237,-1.625 -2.264,-1.625 -9.626,0 -17.863,-6.655 -17.863,-14.835 l 0,-2.512 c 0,-8.453 7.82,-15.331 17.118,-15.331 1.027,0 2.288,-0.727 2.288,-1.625 C 1.429,0.727 1.026,0 0,0"
             style="fill:#a7a67e;fill-opacity:1;fill-rule:nonzero;stroke:none"
             id="path360"
             inkscape:connector-curvature="0" /></g><g
           id="g362"
           transform="translate(526,203)"><path
             d="M 0,0 -228.215,0 C -239.78,0 -250,9.274 -250,19.674 l 0,2.512 C -250,32.223 -240.389,40 -228.215,40 L 0,40 0,36 -228.215,36 C -235.34,36 -245,27.473 -245,22.186 l 0,-2.512 C -245,11.253 -237.517,3 -228.215,3 L 0,3 0,0 Z"
             style="fill:#dc5164;fill-opacity:1;fill-rule:nonzero;stroke:none"
             id="path364"
             inkscape:connector-curvature="0" /></g><g
           id="g366"
           transform="translate(307.5456,133)"><path
             d="m 0,0 59.106,0 c 9.441,0 16.348,7.194 16.348,15.45 l 0,2.241 C 75.454,25.947 68.547,32 59.106,32 L 0,32 C 0,32 4.274,26.843 4.274,16.747 4.274,5.172 0,0 0,0"
             style="fill:#fcfcf7;fill-opacity:1;fill-rule:nonzero;stroke:none"
             id="path368"
             inkscape:connector-curvature="0" /></g><g
           id="g370"
           transform="translate(367.0221,132.339)"><path
             d="m 0,0 c -0.444,0 -0.879,0.195 -1.13,0.55 -0.386,0.545 -0.194,1.26 0.429,1.598 3.03,1.661 8.956,0.901 8.956,15.78 0,9.34 -8.864,14.236 -8.954,14.285 -0.624,0.337 -0.817,1.052 -0.432,1.598 0.385,0.546 1.203,0.714 1.827,0.377 C 1.113,33.963 10.91,28.549 10.91,17.928 10.91,5.846 1.115,0.4 0.698,0.174 0.48,0.056 0.238,0 0,0"
             style="fill:#a7a67e;fill-opacity:1;fill-rule:nonzero;stroke:none"
             id="path372"
             inkscape:connector-curvature="0" /></g><g
           id="g374"
           transform="translate(460.0089,166)"><path
             d="m 0,0 -156.009,0 0,-2 67.288,0 c 2.786,-3 6.379,-7.106 6.379,-13.288 0,-8.157 -4.757,-13.712 -7.567,-15.712 l -66.1,0 0,-4 L 0,-35 c 10.255,0 18.991,6.409 18.991,17.914 l 0,2.242 C 18.991,-5.702 10.962,0 0,0"
             style="fill:#dc5164;fill-opacity:1;fill-rule:nonzero;stroke:none"
             id="path376"
             inkscape:connector-curvature="0" /></g><g
           id="g378"
           transform="translate(410.5906,148.3186)"><path
             d="m 0,0 c 0,10.096 -5.336,17.681 -5.336,17.681 l -10.089,0 c 0,0 5.335,-7.585 5.335,-17.681 0,-11.575 -5.335,-17.319 -5.335,-17.319 l 10.089,0 c 0,0 5.336,5.744 5.336,17.319"
             style="fill:#c4ba02;fill-opacity:1;fill-rule:nonzero;stroke:none"
             id="path380"
             inkscape:connector-curvature="0" /></g><g
           id="g382"
           transform="translate(458.3832,148.3186)"><path
             d="m 0,0 c 0,10.096 -5.336,17.681 -5.336,17.681 l -10.089,0 c 0,0 5.335,-7.585 5.335,-17.681 0,-11.575 -5.335,-17.319 -5.335,-17.319 l 10.089,0 c 0,0 5.336,5.744 5.336,17.319"
             style="fill:#c4ba02;fill-opacity:1;fill-rule:nonzero;stroke:none"
             id="path384"
             inkscape:connector-curvature="0" /></g><g
           id="g386"
           transform="translate(456.5987,332)"><path
             d="m 0,0 -59.942,0 c -6.351,0 -12.657,5.19 -12.657,10.744 l 0,1.508 c 0,5.554 6.306,9.748 12.657,9.748 L 0,22 C 0,22 -2.875,18.295 -2.875,11.503 -2.875,3.716 0,0 0,0"
             style="fill:#fcfcf7;fill-opacity:1;fill-rule:nonzero;stroke:none"
             id="path388"
             inkscape:connector-curvature="0" /></g><g
           id="g390"
           transform="translate(395.6943,333)"><path
             d="m 0,0 -61.912,0 c -6.352,0 -11.782,4.502 -11.782,10.056 l 0,1.508 c 0,5.554 5.43,9.436 11.782,9.436 L 0,21 C 0,21 -6.447,17.795 -6.447,11.003 -6.447,3.216 0,0 0,0"
             style="fill:#613d3c;fill-opacity:1;fill-rule:nonzero;stroke:none"
             id="path392"
             inkscape:connector-curvature="0" /></g><g
           id="g394"
           transform="translate(396.4078,331.9056)"><path
             d="m 0,0 c 0.299,0 0.591,0.131 0.76,0.37 0.26,0.366 0.131,0.848 -0.289,1.075 -0.244,0.134 -6.024,3.384 -6.024,10.616 0,6.284 5.963,9.577 6.023,9.61 0.42,0.227 0.55,0.708 0.291,1.075 -0.259,0.367 -0.965,0.396 -1.385,0.169 C -0.905,22.763 -7.34,19.206 -7.34,12.061 -7.34,3.933 -0.75,0.269 -0.469,0.117 -0.323,0.038 -0.16,0 0,0"
             style="fill:#3c6082;fill-opacity:1;fill-rule:nonzero;stroke:none"
             id="path396"
             inkscape:connector-curvature="0" /></g><g
           id="g398"
           transform="translate(333.8522,331)"><path
             d="m 0,0 125.148,0 0,2 L 0,2 c -5.35,0 -10.852,4.943 -10.852,10.056 l 0,1.508 C -10.852,18.266 -5.719,22 0,22 l 125.148,0 0,2 L 0,24 c -7.375,0 -12.852,-4.286 -12.852,-10.436 l 0,-1.508 C -12.852,5.589 -6.899,0 0,0"
             style="fill:#613d3c;fill-opacity:1;fill-rule:nonzero;stroke:none"
             id="path400"
             inkscape:connector-curvature="0" /></g><g
           id="g402"
           transform="translate(344.5379,355)"><path
             d="m 0,0 69.193,0 c 4.18,0 7.269,4.758 7.269,9.099 l 0,1.179 C 76.462,14.619 73.373,18 69.193,18 L 0,18 C 0,18 1.892,14.702 1.892,9.392 1.892,3.307 0,0 0,0"
             style="fill:#fcfcf7;fill-opacity:1;fill-rule:nonzero;stroke:none"
             id="path404"
             inkscape:connector-curvature="0" /></g><g
           id="g406"
           transform="translate(414.7568,355.3776)"><path
             d="m 0,0 c -0.166,0 -0.329,0.099 -0.423,0.277 -0.145,0.274 -0.494,0.265 -0.259,0.435 0.135,0.1 3.78,2.904 3.78,8.32 0,4.705 -3.326,7.172 -3.36,7.196 -0.234,0.17 -0.306,0.53 -0.162,0.805 0.145,0.275 0.892,-0.124 1.127,-0.294 C 0.859,16.625 4.094,14.382 4.094,9.032 4.094,2.945 0.419,0.201 0.262,0.088 0.181,0.028 0.09,0 0,0"
             style="fill:#3c6082;fill-opacity:1;fill-rule:nonzero;stroke:none"
             id="path408"
             inkscape:connector-curvature="0" /></g><g
           id="g410"
           transform="translate(455.07,374.216)"><path
             d="m 0,0 -111.86,0 0,-2.989 72.696,0 c 1.214,-1.419 2.702,-3.814 2.702,-7.065 0,-3.775 -1.527,-6.386 -2.749,-7.877 l -72.649,0 0,-1.494 71.154,0 40.706,0 0.046,0 c 0.058,0 0.115,0.01 0.174,0.012 4.428,0.128 7.695,4.074 7.695,9.212 l 0,1.218 C 7.915,-4.016 4.854,0 0,0"
             style="fill:#e2c95e;fill-opacity:1;fill-rule:nonzero;stroke:none"
             id="path412"
             inkscape:connector-curvature="0" /></g><path
           d="m 504,166 -212,0 0,37 212,0 0,-37 z"
           style="fill:#006c9a;fill-opacity:1;fill-rule:nonzero;stroke:none"
           id="path414"
           inkscape:connector-curvature="0" /><path
           d="m 311,166 -7,0 0,37 7,0 0,-37 z"
           style="fill:#efeec8;fill-opacity:1;fill-rule:nonzero;stroke:none"
           id="path416"
           inkscape:connector-curvature="0" /><path
           d="m 325,166 -9,0 0,37 9,0 0,-37 z"
           style="fill:#efeec8;fill-opacity:1;fill-rule:nonzero;stroke:none"
           id="path418"
           inkscape:connector-curvature="0" /><path
           d="m 494,308 -197,0 0,23 197,0 0,-23 z"
           style="fill:#dc5164;fill-opacity:1;fill-rule:nonzero;stroke:none"
           id="path420"
           inkscape:connector-curvature="0" /><path
           d="m 488,308 -8,0 0,23 8,0 0,-23 z"
           style="fill:#efeec8;fill-opacity:1;fill-rule:nonzero;stroke:none"
           id="path422"
           inkscape:connector-curvature="0" /><path
           d="m 478,308 -8,0 0,23 8,0 0,-23 z"
           style="fill:#efeec8;fill-opacity:1;fill-rule:nonzero;stroke:none"
           id="path424"
           inkscape:connector-curvature="0" /><g
           id="g426"
           transform="translate(505,244)"><path
             d="M 0,0 -140.617,0 C -149.743,0 -157,3.625 -157,11.605 l 0,2.167 c 0,7.98 7.257,9.228 16.383,9.228 L 0,23 0,0 Z"
             style="fill:#fcfcf7;fill-opacity:1;fill-rule:nonzero;stroke:none"
             id="path428"
             inkscape:connector-curvature="0" /></g><g
           id="g430"
           transform="translate(513.1137,244)"><path
             d="m 0,0 -92.114,0 0,23 L 0,23 C 0,23 -2.318,18.333 -2.318,11.43 -2.318,4.469 0,0 0,0"
             style="fill:#f0f0e2;fill-opacity:1;fill-rule:nonzero;stroke:none"
             id="path432"
             inkscape:connector-curvature="0" /></g><g
           id="g434"
           transform="translate(364.8754,243)"><path
             d="m 0,0 151.125,0 0,2 L 0,2 c -10.442,0 -14.875,3.743 -14.875,10.605 l 0,2.167 C -14.875,20.751 -10.877,23 0,23 l 151.125,0 0,3 L 0,26 c -7.802,0 -16.875,-1.501 -16.875,-11.228 l 0,-2.167 C -16.875,6.893 -15.021,0 0,0"
             style="fill:#e2c95e;fill-opacity:1;fill-rule:nonzero;stroke:none"
             id="path436"
             inkscape:connector-curvature="0" /></g><g
           id="g438"
           transform="translate(599.8067,690.3336)"><path
             d="m 0,0 c 0,-4.588 -2.57,-8.307 -5.74,-8.307 -3.169,0 -5.739,3.719 -5.739,8.307 0,4.588 2.57,8.307 5.739,8.307 C -2.57,8.307 0,4.588 0,0"
             style="fill:#fcfcf7;fill-opacity:1;fill-rule:nonzero;stroke:none"
             id="path440"
             inkscape:connector-curvature="0" /></g><g
           id="g442"
           transform="translate(469.3119,680.8749)"><path
             d="m 0,0 -58.296,-2.257 c -0.014,-10e-4 -0.027,0.011 -0.027,0.025 l -0.453,11.679 c 0,0.014 0.011,0.027 0.026,0.027 l 58.296,2.257 c 0.014,10e-4 0.027,-0.011 0.027,-0.025 L 0.026,0.028 C 0.026,0.013 0.015,0.001 0,0"
             style="fill:#e2c95e;fill-opacity:1;fill-rule:nonzero;stroke:none"
             id="path444"
             inkscape:connector-curvature="0" /></g><g
           id="g446"
           transform="translate(510.526,681.8546)"><path
             d="m 0,0 -41.446,-1.605 c -0.014,0 -0.027,0.011 -0.027,0.026 l -0.493,12.723 c 0,0.015 0.011,0.028 0.026,0.028 l 41.445,1.605 c 0.015,0 0.027,-0.011 0.028,-0.026 L 0.025,0.028 C 0.026,0.013 0.015,0.001 0,0"
             style="fill:#e2c95e;fill-opacity:1;fill-rule:nonzero;stroke:none"
             id="path448"
             inkscape:connector-curvature="0" /></g><g
           id="g450"
           transform="translate(553.0621,681.7003)"><path
             d="m 0,0 -41.434,-1.604 c -0.018,-10e-4 -0.033,0.015 -0.034,0.036 l -0.589,15.22 c -10e-4,0.02 0.013,0.037 0.03,0.038 l 41.435,1.604 c 0.018,10e-4 1.154,0.429 1.155,0.408 L 0.031,0.038 C 0.031,0.018 0.018,0.001 0,0"
             style="fill:#e2c95e;fill-opacity:1;fill-rule:nonzero;stroke:none"
             id="path452"
             inkscape:connector-curvature="0" /></g><g
           id="g454"
           transform="translate(595.5042,681.8723)"><path
             d="m 0,0 -41.446,-1.605 c -0.014,0 -0.027,0.011 -0.027,0.026 l -0.698,18.022 c -10e-4,0.015 0.011,0.027 0.026,0.028 L -0.7,18.076 c 0.015,0 0.027,-0.011 0.028,-0.026 L 0.025,0.028 C 0.026,0.013 0.015,0.001 0,0"
             style="fill:#e2c95e;fill-opacity:1;fill-rule:nonzero;stroke:none"
             id="path456"
             inkscape:connector-curvature="0" /></g><g
           id="g458"
           transform="translate(410.7148,678.2001)"><path
             d="m 0,0 -0.354,0 c -0.469,0 -0.852,0.383 -0.852,0.851 l 0,11.666 c 0,0.468 0.383,0.851 0.852,0.851 l 0.354,0 c 0.468,0 0.851,-0.383 0.851,-0.851 l 0,-11.666 C 0.851,0.383 0.468,0 0,0"
             style="fill:#dfda8a;fill-opacity:1;fill-rule:nonzero;stroke:none"
             id="path460"
             inkscape:connector-curvature="0" /></g><g
           id="g462"
           transform="translate(468.5044,679.0287)"><path
             d="m 0,0 -0.354,0 c -0.469,0 -0.852,0.383 -0.852,0.851 l 0,13.517 c 0,0.468 0.383,0.851 0.852,0.851 l 0.354,0 c 0.468,0 0.851,-0.383 0.851,-0.851 l 0,-13.517 C 0.851,0.383 0.468,0 0,0"
             style="fill:#dfda8a;fill-opacity:1;fill-rule:nonzero;stroke:none"
             id="path464"
             inkscape:connector-curvature="0" /></g><g
           id="g466"
           transform="translate(511.0754,679.0257)"><path
             d="m 0,0 -0.354,0 c -0.469,0 -0.852,0.383 -0.852,0.851 l 0,15.782 c 0,0.468 0.383,0.851 0.852,0.851 l 0.354,0 c 0.468,0 0.851,-0.383 0.851,-0.851 l 0,-15.782 C 0.851,0.383 0.468,0 0,0"
             style="fill:#dfda8a;fill-opacity:1;fill-rule:nonzero;stroke:none"
             id="path468"
             inkscape:connector-curvature="0" /></g><g
           id="g470"
           transform="translate(553.2892,679.2842)"><path
             d="m 0,0 0.355,0 c 0.468,0 0.851,0.383 0.851,0.851 l 0,18.477 c 0,0.469 -0.383,0.852 -0.851,0.852 L 0,20.18 c -0.468,0 -0.851,-0.383 -0.851,-0.852 l 0,-18.477 C -0.851,0.383 -0.468,0 0,0"
             style="fill:#dfda8a;fill-opacity:1;fill-rule:nonzero;stroke:none"
             id="path472"
             inkscape:connector-curvature="0" /></g><g
           id="g474"
           transform="translate(595.8571,680.2305)"><path
             d="m 0,0 -0.355,0 c -0.468,0 -0.851,0.383 -0.851,0.851 l 0,18.94 c 0,0.468 0.383,0.851 0.851,0.851 l 0.355,0 c 0.468,0 0.851,-0.383 0.851,-0.851 l 0,-18.94 C 0.851,0.383 0.468,0 0,0"
             style="fill:#dfda8a;fill-opacity:1;fill-rule:nonzero;stroke:none"
             id="path476"
             inkscape:connector-curvature="0" /></g><g
           id="g478"
           transform="translate(376.3687,653.2282)"><path
             d="m 0,0 c 0,0 -14.5,-39.472 -0.045,-16.999 0.007,0.01 0.024,-0.017 0.035,-0.024 0.617,0.02 1.222,-0.153 1.763,-0.453 0.649,0.306 1.396,0.387 2.11,0.267 0.104,0.196 4.854,-12.364 4.998,-12.193 l -4.489,12.92 c 0.082,0.096 0.176,0.171 0.265,0.255 -0.163,0.467 2.042,-12.948 1.807,-12.37 0.078,2.978 1.454,26.624 1.454,26.624 C 0.506,-0.793 0,0 0,0"
             style="fill:#f9f7e8;fill-opacity:1;fill-rule:nonzero;stroke:none"
             id="path480"
             inkscape:connector-curvature="0" /></g><g
           id="g482"
           transform="translate(466.8538,685.4742)"><path
             d="m 0,0 c -0.421,-0.834 -0.967,-1.588 -1.618,-2.24 -1.073,-1.546 -2.864,-2.778 -3.774,-2.852 -0.161,-0.013 -0.363,0.05 -0.589,0.156 -0.716,-0.189 -1.49,-0.303 -2.339,-0.303 -0.35,0 -0.681,0.031 -1.007,0.067 -0.266,-0.032 -0.535,-0.055 -0.805,-0.067 -0.173,-0.008 -0.343,0.004 -0.514,0.01 0.067,-1.598 0.86,-3.945 3.071,-6.831 3.634,-4.745 6.457,-7.997 6.457,-7.997 0,0 -3.96,-17.628 -9.775,-24.515 -5.814,-6.887 8.919,-4.15 10.785,-5.081 0,0 7.184,16.822 8.164,26.757 0,0 5.9,12.323 6.18,17.434 C 14.408,-2.319 4.91,4.376 0,0"
             style="fill:#f9f7e8;fill-opacity:1;fill-rule:nonzero;stroke:none"
             id="path484"
             inkscape:connector-curvature="0" /></g><g
           id="g486"
           transform="translate(369.902,396.5401)"><path
             d="m 0,0 c 0,0 -4.837,-15.547 -5.078,-19.425 -0.241,-3.878 17.2,-3.991 18.851,-2.869 1.65,1.123 5.557,19.709 3.927,20.246 C 16.07,-1.511 0.565,1.847 0,0"
             style="fill:#5d3938;fill-opacity:1;fill-rule:nonzero;stroke:none"
             id="path488"
             inkscape:connector-curvature="0" /></g><g
           id="g490"
           transform="translate(368.5786,395.3038)"><path
             d="m 0,0 c 0,0 2.885,-2.675 7.755,-4.641 4.871,-1.966 11.308,3.46 11.308,3.46 6.795,15.664 15.992,114.447 15.992,114.447 0,0 -22.579,24.713 -24.459,17.036 -1.88,-7.676 5.968,-42.026 3.165,-62.652 L 0,0 Z"
             style="fill:#0a648f;fill-opacity:1;fill-rule:nonzero;stroke:none"
             id="path492"
             inkscape:connector-curvature="0" /></g><g
           id="g494"
           transform="translate(400.0293,394.4217)"><path
             d="m 0,0 c 0,0 6.222,-11.479 7.828,-12.411 1.607,-0.931 13.037,0.024 14.09,-0.873 1.054,-0.897 1.043,-6.765 1.043,-6.765 -2.737,-0.912 -16.381,-1.856 -21.371,-1.825 -4.99,0.032 -17.671,-0.426 -20.59,1.696 -0.467,1.416 3.961,19.169 5.186,21.034 C -12.589,2.721 -0.606,3.643 0,0"
             style="fill:#613d3c;fill-opacity:1;fill-rule:nonzero;stroke:none"
             id="path496"
             inkscape:connector-curvature="0" /></g><g
           id="g498"
           transform="translate(426.328,530.1821)"><path
             d="m 0,0 c 0,0 0.263,-62.483 -3.925,-76.367 -4.189,-13.885 -15.379,-48.968 -16.326,-51.96 0,0 0.001,-3.328 -0.308,-4.973 -0.309,-1.645 -3.189,-7.845 -4.932,-9.124 -1.743,-1.279 -14.279,-2.166 -16.9,3.148 0,0 5.439,22.245 7.661,31.26 2.223,9.014 7.903,64.472 6.943,84.778 0,0 -16.534,8.939 -18.518,14.459 -1.799,5.004 -2.924,10.998 -2.872,11.827 C -49.126,3.877 0,0 0,0"
             style="fill:#006c9a;fill-opacity:1;fill-rule:nonzero;stroke:none"
             id="path500"
             inkscape:connector-curvature="0" /></g><g
           id="g502"
           transform="translate(373.0908,528.6697)"><path
             d="m 0,0 c 0,0 5.789,31.491 -0.509,52.874 -6.297,21.384 -18.961,46.149 -13.148,56.084 0,0 4.775,1.275 10.795,0 6.021,-1.276 17.024,-0.783 17.024,-0.783 0,0 10.796,-0.7 13.494,-1.323 2.699,-0.623 20.346,-14.74 31.141,-16.609 10.796,-1.868 25.661,30.851 27.945,34.965 2.283,4.113 14.181,1.832 14.596,-1.991 0.415,-3.823 -11.192,-38.579 -24.064,-45.222 -12.871,-6.644 -33.839,-1.869 -33.839,-1.869 0,0 16.148,-42.702 12.203,-79.448 0,0 -29.436,-7.228 -55.638,3.322"
             style="fill:#dc5164;fill-opacity:1;fill-rule:nonzero;stroke:none"
             id="path504"
             inkscape:connector-curvature="0" /></g><g
           id="g506"
           transform="translate(391.3715,636.7003)"><path
             d="m 0,0 c 0,0 -1.661,5.813 -2.491,6.228 -0.831,0.415 -19.1,-2.076 -24.498,0 0,0 -0.623,-3.114 0,-5.605 0,0 6.436,-5.605 26.989,-0.623"
             style="fill:#5f2d34;fill-opacity:1;fill-rule:nonzero;stroke:none"
             id="path508"
             inkscape:connector-curvature="0" /></g><g
           id="g510"
           transform="translate(423.0903,679.2284)"><path
             d="m 0,0 c -4.632,-0.223 -6.756,2.732 -7.772,1.9 -1.015,-0.832 -1.16,-4.177 2.474,-8.922 3.635,-4.746 6.458,-7.998 6.458,-7.998 0,0 -3.961,-17.627 -9.775,-24.514 -5.814,-6.888 8.918,-4.15 10.785,-5.082 0,0 7.184,16.822 8.164,26.758 0,0 8.157,15.474 8.961,18.498 C 12.849,-0.051 6.487,0.312 0,0"
             style="fill:#f9f7e8;fill-opacity:1;fill-rule:nonzero;stroke:none"
             id="path512"
             inkscape:connector-curvature="0" /></g><g
           id="g514"
           transform="translate(432.1376,648.262)"><path
             d="m 0,0 c -0.415,3.823 -12.313,6.104 -14.596,1.99 -2.284,-4.113 -17.149,-36.832 -27.945,-34.964 -7.519,1.301 -18.356,8.541 -25.157,13.028 1.687,-3.509 3.396,-6.995 5.401,-10.363 3.371,-5.66 6.13,-11.506 8.492,-17.52 6.746,-1.018 20.381,-2.225 29.741,2.606 C -11.192,-38.579 0.415,-3.823 0,0"
             style="fill:#dc5164;fill-opacity:1;fill-rule:nonzero;stroke:none"
             id="path516"
             inkscape:connector-curvature="0" /></g><g
           id="g518"
           transform="translate(395.5562,701.9686)"><path
             d="m 0,0 c 0,0 0.209,-9.616 4.481,-23.273 4.39,-14.03 6.137,-16.606 6.741,-19.627 2.863,-14.317 -23.86,-13.89 -31.05,-8.314 -7.19,5.576 -16.47,37.178 -17.509,43.583 C -38.376,-1.227 -10.21,20.81 0,0"
             style="fill:#f9f7e8;fill-opacity:1;fill-rule:nonzero;stroke:none"
             id="path520"
             inkscape:connector-curvature="0" /></g><g
           id="g522"
           transform="translate(371.1544,667.5245)"><path
             d="m 0,0 c 0,0 7.257,4.646 3.703,17.859 -1.254,4.661 -0.599,8.604 -0.599,8.604 0,0 -1.674,-2.901 7.203,5.38 2.896,2.703 14.217,-1.191 18.491,2.054 4.274,3.244 11.949,17.097 -1.889,21.593 -14.29,4.644 -29.955,8.674 -23.696,4.416 24.119,-16.408 -14.941,-12.227 -23.326,-23.223 0,0 1.337,4.476 -0.87,4.497 -4.345,0.043 -0.242,-4.578 -0.242,-4.578 0,0 -2.848,3.77 -4.561,0.425 -1.713,-3.345 3.629,-3.386 3.629,-3.386 0,0 -11.741,-15.172 3.449,-30.693 0,0 12.862,-11.735 13.307,-14.477 0.445,-2.743 3.938,1.405 3.938,1.405 0,0 -2.494,-6.535 3.423,-3.379 C 11.761,-8.276 0,0 0,0"
             style="fill:#613d3c;fill-opacity:1;fill-rule:nonzero;stroke:none"
             id="path524"
             inkscape:connector-curvature="0" /></g><g
           id="g526"
           transform="translate(375.2533,675.1366)"><path
             d="m 0,0 c 0,0 -4.33,3.674 -8.802,0.82 -4.471,-2.854 1.464,-14.388 10.767,-7.311 0,0 1.802,1.78 -1.965,6.491"
             style="fill:#f9f7e8;fill-opacity:1;fill-rule:nonzero;stroke:none"
             id="path528"
             inkscape:connector-curvature="0" /></g><g
           id="g530"><g
             id="g532" /><g
             id="g538"><g
               clip-path="url(#clipPath534)"
               id="g540"
               style="opacity:0.33999604"><g
                 transform="translate(376.8016,672.8433)"
                 id="g542"><path
                   d="m 0,0 c -0.037,-0.033 -0.065,-0.073 -0.103,-0.104 -1.365,-1.109 -3.199,-1.553 -4.748,-0.439 -1.316,0.946 -1.578,2.38 -1.441,3.865 0.027,0.299 0.103,0.575 0.199,0.84 -1.302,0.12 -2.769,-0.099 -4.257,-1.049 -4.471,-2.854 1.463,-14.388 10.767,-7.311 0,0 1.2,1.191 -0.417,4.198"
                   style="fill:#f9f7e8;fill-opacity:1;fill-rule:nonzero;stroke:none"
                   id="path544"
                   inkscape:connector-curvature="0" /></g></g></g></g><g
           id="g546"><g
             id="g548" /><g
             id="g554"><g
               clip-path="url(#clipPath550)"
               id="g556"
               style="opacity:0.58000201"><g
                 transform="translate(376.1909,669.8543)"
                 id="g558"><path
                   d="m 0,0 c 0,0 -6.447,-1.106 -9.064,2.812 0,0 0.953,-6.955 9.064,-2.812"
                   style="fill:#f9f7e8;fill-opacity:1;fill-rule:nonzero;stroke:none"
                   id="path560"
                   inkscape:connector-curvature="0" /></g></g></g></g><g
           id="g562"
           transform="translate(391.0359,696.8758)"><path
             d="m 0,0 c 0,0 1.307,-1.847 -0.387,-4.155 -1.694,-2.307 -5.644,0.28 -7.764,-3.96 -2.12,-4.24 -3.103,3.74 4.968,5.7 0,0 0.609,3.887 3.183,2.415"
             style="fill:#613d3c;fill-opacity:1;fill-rule:nonzero;stroke:none"
             id="path564"
             inkscape:connector-curvature="0" /></g><g
           id="g566"
           transform="translate(394.8723,685.3433)"><path
             d="m 0,0 c 0,0 -0.081,-0.081 -0.223,-0.203 0.003,0.005 0.011,0.024 0.011,0.024 0,0 -0.012,-0.018 -0.028,-0.039 -0.358,-0.304 -1.119,-0.864 -2.268,-1.247 -1.547,-0.516 -3.066,-0.107 -3.066,-0.107 0,0 1.574,-0.804 3.113,-0.369 0.123,0.034 0.235,0.085 0.35,0.132 -0.116,-0.068 -0.229,-0.136 -0.355,-0.201 -1.45,-0.747 -3.013,-0.575 -3.013,-0.575 0,0 1.678,-0.554 3.132,0.111 1.057,0.482 1.7,1.469 1.975,1.976 C -0.129,-0.211 0,0 0,0"
             style="fill:#51718e;fill-opacity:1;fill-rule:nonzero;stroke:none"
             id="path568"
             inkscape:connector-curvature="0" /></g><g
           id="g570"
           transform="translate(394.2599,668.3926)"><path
             d="m 0,0 c 0,0 0.367,-0.269 0.918,-0.672 0.27,-0.19 0.579,-0.406 0.914,-0.599 0.163,-0.104 0.342,-0.186 0.517,-0.268 0.17,-0.102 0.357,-0.133 0.534,-0.204 0.178,-0.022 0.358,-0.108 0.534,-0.087 0.088,0.001 0.175,-0.006 0.264,-0.016 l 0.257,0.039 c 0.175,0.007 0.335,0.08 0.498,0.127 0.167,0.038 0.309,0.13 0.452,0.197 0.137,0.076 0.286,0.123 0.391,0.207 0.115,0.073 0.216,0.138 0.299,0.19 0.173,0.104 0.283,0.162 0.283,0.162 0,0 -0.042,-0.108 -0.135,-0.294 C 5.628,-1.4 5.507,-1.684 5.238,-1.939 5.111,-2.072 4.984,-2.236 4.786,-2.34 4.599,-2.455 4.41,-2.607 4.161,-2.659 4.041,-2.696 3.918,-2.733 3.794,-2.77 3.666,-2.786 3.534,-2.793 3.401,-2.796 3.131,-2.825 2.875,-2.741 2.61,-2.705 2.372,-2.605 2.114,-2.531 1.907,-2.397 1.683,-2.284 1.496,-2.13 1.319,-1.984 1.132,-1.848 0.997,-1.672 0.852,-1.526 0.72,-1.368 0.599,-1.217 0.505,-1.066 0.108,-0.473 0,0 0,0"
             style="fill:#bfacae;fill-opacity:1;fill-rule:nonzero;stroke:none"
             id="path572"
             inkscape:connector-curvature="0" /></g><g
           id="g574"
           transform="translate(373.3392,686.6891)"><path
             d="m 0,0 c 0,0 5.388,-6.52 7.903,-12.753 0.461,-1.143 -0.787,-2.234 -1.853,-1.614 -2.648,1.54 -7.228,4.12 -6.63,6.291 C -0.314,-7.11 0,0 0,0"
             style="fill:#613d3c;fill-opacity:1;fill-rule:nonzero;stroke:none"
             id="path576"
             inkscape:connector-curvature="0" /></g><g
           id="g578"
           transform="translate(399.0319,681.0277)"><path
             d="M 0,0 C 1.742,2.831 9.963,-2.534 1.682,-6.477"
             style="fill:#f9f7e8;fill-opacity:1;fill-rule:nonzero;stroke:none"
             id="path580"
             inkscape:connector-curvature="0" /></g><g
           id="g582"><g
             id="g584" /><g
             id="g590"><g
               clip-path="url(#clipPath586)"
               id="g592"
               style="opacity:0.28999299"><g
                 transform="translate(398.5211,632.4854)"
                 id="g594"><path
                   d="m 0,0 c 0,0 -0.35,-0.167 -0.939,-0.488 -0.592,-0.317 -1.41,-0.82 -2.339,-1.477 -1.849,-1.301 -4.137,-3.4 -5.327,-6.115 -0.282,-0.677 -0.542,-1.368 -0.679,-2.08 -0.161,-0.706 -0.245,-1.418 -0.272,-2.112 -0.017,-0.694 0.003,-1.371 0.081,-2.011 0.066,-0.639 0.181,-1.244 0.299,-1.798 0.255,-1.106 0.529,-2.027 0.766,-2.655 0.233,-0.63 0.355,-1 0.355,-1 0,0 -0.201,0.329 -0.533,0.921 -0.174,0.293 -0.343,0.667 -0.544,1.098 -0.217,0.424 -0.403,0.927 -0.597,1.482 -0.184,0.556 -0.37,1.172 -0.484,1.841 -0.133,0.666 -0.217,1.384 -0.223,2.131 10e-4,0.746 0.032,1.529 0.207,2.301 0.14,0.779 0.408,1.542 0.71,2.286 0.348,0.724 0.73,1.434 1.199,2.066 0.453,0.643 0.972,1.218 1.505,1.735 1.063,1.04 2.211,1.819 3.231,2.393 C -1.526,-0.343 0,0 0,0"
                   style="fill:#5f2d34;fill-opacity:1;fill-rule:nonzero;stroke:none"
                   id="path596"
                   inkscape:connector-curvature="0" /></g></g></g></g><g
           id="g598"
           transform="translate(481.2782,680.3747)"><path
             d="m 0,0 c -0.187,2.854 -0.629,6.671 -1.598,11.52 -0.818,4.089 -17.486,1.801 -19.556,-1.369 -0.052,0.079 1.626,-9.667 0.223,-12.728 -0.883,-1.926 8.576,-2.956 15.067,-3.432 C -5.201,-3.188 -3.247,-0.726 0,0"
             style="fill:#f9f7e8;fill-opacity:1;fill-rule:nonzero;stroke:none"
             id="path600"
             inkscape:connector-curvature="0" /></g><g
           id="g602"
           transform="translate(428.5277,687.6653)"><path
             d="m 0,0 c 0,-2.669 -1.172,-4.833 -2.618,-4.833 -1.446,0 -2.618,2.164 -2.618,4.833 0,2.669 1.172,4.833 2.618,4.833 C -1.172,4.833 0,2.669 0,0"
             style="fill:#f9f7e8;fill-opacity:1;fill-rule:nonzero;stroke:none"
             id="path604"
             inkscape:connector-curvature="0" /></g><g
           id="g606"
           transform="translate(432.9582,688.2694)"><path
             d="m 0,0 c 0,-2.669 -1.172,-4.833 -2.618,-4.833 -1.446,0 -2.618,2.164 -2.618,4.833 0,2.669 1.172,4.833 2.618,4.833 C -1.172,4.833 0,2.669 0,0"
             style="fill:#f9f7e8;fill-opacity:1;fill-rule:nonzero;stroke:none"
             id="path608"
             inkscape:connector-curvature="0" /></g><g
           id="g610"
           transform="translate(437.7915,688.8736)"><path
             d="m 0,0 c 0,-2.669 -1.172,-4.833 -2.618,-4.833 -1.446,0 -2.618,2.164 -2.618,4.833 0,2.669 1.172,4.833 2.618,4.833 C -1.172,4.833 0,2.669 0,0"
             style="fill:#f9f7e8;fill-opacity:1;fill-rule:nonzero;stroke:none"
             id="path612"
             inkscape:connector-curvature="0" /></g><g
           id="g614"
           transform="translate(442.8261,688.8736)"><path
             d="m 0,0 c 0,-2.669 -1.172,-4.833 -2.618,-4.833 -1.446,0 -2.618,2.164 -2.618,4.833 0,2.669 1.172,4.833 2.618,4.833 C -1.172,4.833 0,2.669 0,0"
             style="fill:#f9f7e8;fill-opacity:1;fill-rule:nonzero;stroke:none"
             id="path616"
             inkscape:connector-curvature="0" /></g><g
           id="g618"
           transform="translate(465.3814,690.6861)"><path
             d="m 0,0 c 0,-2.669 -1.172,-4.833 -2.618,-4.833 -1.446,0 -2.618,2.164 -2.618,4.833 0,2.669 1.172,4.833 2.618,4.833 C -1.172,4.833 0,2.669 0,0"
             style="fill:#f9f7e8;fill-opacity:1;fill-rule:nonzero;stroke:none"
             id="path620"
             inkscape:connector-curvature="0" /></g><g
           id="g622"
           transform="translate(469.8119,691.2902)"><path
             d="m 0,0 c 0,-2.669 -1.172,-4.833 -2.618,-4.833 -1.446,0 -2.618,2.164 -2.618,4.833 0,2.669 1.172,4.833 2.618,4.833 C -1.172,4.833 0,2.669 0,0"
             style="fill:#f9f7e8;fill-opacity:1;fill-rule:nonzero;stroke:none"
             id="path624"
             inkscape:connector-curvature="0" /></g><g
           id="g626"
           transform="translate(474.6451,691.8944)"><path
             d="m 0,0 c 0,-2.669 -1.172,-4.833 -2.618,-4.833 -1.446,0 -2.618,2.164 -2.618,4.833 0,2.669 1.172,4.833 2.618,4.833 C -1.172,4.833 0,2.669 0,0"
             style="fill:#f9f7e8;fill-opacity:1;fill-rule:nonzero;stroke:none"
             id="path628"
             inkscape:connector-curvature="0" /></g><g
           id="g630"
           transform="translate(479.6798,691.8944)"><path
             d="m 0,0 c 0,-2.669 -1.172,-4.833 -2.618,-4.833 -1.446,0 -2.618,2.164 -2.618,4.833 0,2.669 1.172,4.833 2.618,4.833 C -1.172,4.833 0,2.669 0,0"
             style="fill:#f9f7e8;fill-opacity:1;fill-rule:nonzero;stroke:none"
             id="path632"
             inkscape:connector-curvature="0" /></g><g
           id="g634"><g
             id="g636" /><g
             id="g642"><g
               clip-path="url(#clipPath638)"
               id="g644"
               style="opacity:0.28999299"><g
                 transform="translate(376.5216,591.1861)"
                 id="g646"><path
                   d="m 0,0 c -0.057,0.143 0.095,-0.081 0.239,-0.457 0.159,-0.377 0.394,-0.93 0.664,-1.644 0.539,-1.429 1.318,-3.469 2.13,-5.958 0.809,-2.49 1.75,-5.4 2.6,-8.563 0.851,-3.163 1.682,-6.559 2.386,-9.987 0.662,-3.435 1.189,-6.9 1.486,-10.174 0.302,-3.274 0.282,-6.363 0.002,-8.987 -0.27,-2.628 -0.963,-4.763 -1.679,-6.124 -0.356,-0.684 -0.719,-1.171 -0.979,-1.488 -0.262,-0.316 -0.419,-0.467 -0.419,-0.467 0,0 0.143,0.165 0.375,0.5 0.235,0.334 0.537,0.85 0.847,1.539 0.634,1.378 1.117,3.507 1.294,6.091 0.195,2.587 0.027,5.622 -0.304,8.852 -0.335,3.233 -0.906,6.661 -1.603,10.064 -0.654,3.412 -1.438,6.801 -2.244,9.961 -0.809,3.159 -1.57,6.11 -2.297,8.618 C 1.774,-5.715 1.182,-3.618 0.72,-2.165 0.491,-1.437 0.311,-0.866 0.188,-0.477 0.069,-0.091 -0.042,0.147 0,0"
                   style="fill:#5f2d34;fill-opacity:1;fill-rule:nonzero;stroke:none"
                   id="path648"
                   inkscape:connector-curvature="0" /></g></g></g></g><g
           id="g650"
           transform="translate(660.9183,559.9952)"><path
             d="M 0,0 C -2.261,0 -4.376,-0.63 -6.177,-1.723 -6.354,4.71 -11.62,9.87 -18.095,9.87 c -2.619,0 -5.04,-0.846 -7.007,-2.277 -0.319,11.305 -9.577,20.373 -20.959,20.373 -9.736,0 -17.92,-6.635 -20.284,-15.628 -2.951,1.823 -6.426,2.879 -10.149,2.879 -10.676,0 -19.33,-8.654 -19.33,-19.33 0,-8.497 5.487,-15.709 13.108,-18.3 1.249,-0.653 2.665,-1.029 4.165,-1.029 l 75.444,0 c 0.991,-0.267 2.032,-0.411 3.107,-0.411 6.587,0 11.927,5.34 11.927,11.926 C 11.927,-5.34 6.587,0 0,0"
             style="fill:#fcfcf7;fill-opacity:1;fill-rule:nonzero;stroke:none"
             id="path652"
             inkscape:connector-curvature="0" /></g><g
           id="g654"
           transform="translate(263.5823,487.1736)"><path
             d="M 0,0 C -2.287,0 -4.425,-0.637 -6.247,-1.742 -6.426,4.763 -11.752,9.982 -18.3,9.982 c -2.648,0 -5.096,-0.856 -7.085,-2.304 -0.323,11.433 -9.685,20.603 -21.196,20.603 -9.846,0 -18.122,-6.709 -20.513,-15.804 -2.983,1.844 -6.498,2.911 -10.263,2.911 -10.796,0 -19.548,-8.751 -19.548,-19.547 0,-8.594 5.548,-15.887 13.256,-18.506 1.263,-0.662 2.694,-1.041 4.212,-1.041 l 76.295,0 c 1.002,-0.27 2.055,-0.416 3.142,-0.416 6.661,0 12.061,5.4 12.061,12.061 C 12.061,-5.4 6.661,0 0,0"
             style="fill:#fcfcf7;fill-opacity:1;fill-rule:nonzero;stroke:none"
             id="path656"
             inkscape:connector-curvature="0" /></g></g></g></g></svg>